<svg width="194" height="158" viewBox="0 0 194 158" fill="none" xmlns="http://www.w3.org/2000/svg">
<path d="M82.1533 152.193C82.1533 151.118 82.5796 150.07 83.8341 150.07C85.0959 150.07 85.5947 151.069 85.5947 152.143C85.5947 153.183 85.1225 154.226 83.8873 154.226C82.6982 154.226 82.1533 153.218 82.1533 152.193ZM86.486 147.305H85.5681V150.132H85.5414C85.1321 149.481 84.3062 149.267 83.7323 149.267C82.0248 149.267 81.1821 150.574 81.1821 152.13C81.1821 153.682 82.0346 155.02 83.7614 155.02C84.5316 155.02 85.2314 154.748 85.5414 154.15H85.5681V154.89H86.486V147.305Z" fill="#5E686D"/>
<path d="M88.5736 151.618C88.6365 150.775 89.2105 150.071 90.1719 150.071C91.08 150.071 91.7437 150.762 91.7898 151.618H88.5736ZM91.7704 153.152C91.5985 153.865 91.0704 154.222 90.3173 154.222C89.0919 154.222 88.5373 153.375 88.5736 152.42H92.761C92.8143 151.083 92.2064 149.268 90.2277 149.268C88.7019 149.268 87.5928 150.476 87.5928 152.126C87.6484 153.812 88.4913 155.021 90.281 155.021C91.5356 155.021 92.4243 154.361 92.6689 153.152H91.7704Z" fill="#5E686D"/>
<path d="M96.8751 154.891H97.8995V151.649H100.416C101.406 151.649 101.588 152.282 101.697 153.022C101.852 153.767 101.687 154.584 101.978 154.891H103.123C102.695 154.369 102.731 153.54 102.668 152.799C102.595 152.059 102.414 151.408 101.515 151.239V151.216C102.44 150.957 102.859 150.204 102.859 149.294C102.859 148.077 101.961 147.305 100.508 147.305H96.8748V154.891H96.8751ZM97.8995 150.802V148.153H100.452C101.416 148.153 101.823 148.71 101.823 149.45C101.823 150.552 101.007 150.802 100.036 150.802H97.8995Z" fill="#5E686D"/>
<path d="M104.812 151.618C104.868 150.775 105.439 150.071 106.401 150.071C107.319 150.071 107.972 150.762 108.019 151.618H104.812ZM107.989 153.152C107.837 153.865 107.309 154.222 106.546 154.222C105.321 154.222 104.776 153.375 104.812 152.42H108.99C109.053 151.083 108.445 149.268 106.456 149.268C104.94 149.268 103.821 150.476 103.821 152.126C103.887 153.812 104.729 155.021 106.51 155.021C107.771 155.021 108.653 154.361 108.907 153.152H107.989Z" fill="#5E686D"/>
<path d="M114.694 151.164C114.565 149.857 113.548 149.269 112.277 149.269C110.506 149.269 109.634 150.566 109.634 152.221C109.634 153.853 110.552 155.021 112.26 155.021C113.667 155.021 114.522 154.223 114.73 152.885H113.785C113.667 153.715 113.131 154.223 112.25 154.223C111.078 154.223 110.615 153.229 110.615 152.221C110.615 151.101 111.025 150.072 112.359 150.072C113.112 150.072 113.604 150.473 113.739 151.164H114.694V151.164Z" fill="#5E686D"/>
<path d="M116.428 151.618C116.49 150.775 117.064 150.071 118.026 150.071C118.934 150.071 119.598 150.762 119.644 151.618H116.428ZM119.624 153.152C119.462 153.865 118.924 154.222 118.161 154.222C116.946 154.222 116.391 153.375 116.427 152.42H120.615C120.668 151.083 120.06 149.268 118.082 149.268C116.556 149.268 115.447 150.476 115.447 152.126C115.502 153.812 116.345 155.021 118.135 155.021C119.389 155.021 120.278 154.361 120.532 153.152H119.624Z" fill="#5E686D"/>
<path d="M121.533 154.892H122.448V152.448C122.448 151.057 122.993 150.228 124.475 150.228V149.269C123.485 149.243 122.867 149.679 122.421 150.554H122.405V149.398H121.533V154.892Z" fill="#5E686D"/>
<path d="M129.723 151.164C129.597 149.857 128.58 149.269 127.308 149.269C125.528 149.269 124.664 150.566 124.664 152.221C124.664 153.853 125.581 155.021 127.289 155.021C128.696 155.021 129.551 154.223 129.759 152.885H128.815C128.696 153.715 128.161 154.223 127.279 154.223C126.11 154.223 125.645 153.229 125.645 152.221C125.645 151.101 126.054 150.072 127.388 150.072C128.144 150.072 128.633 150.473 128.769 151.164H129.723V151.164Z" fill="#5E686D"/>
<path d="M135.734 154.169C135.618 154.214 135.535 154.228 135.463 154.228C135.172 154.228 135.172 154.035 135.172 153.607V150.776C135.172 149.492 134.082 149.269 133.065 149.269C131.82 149.269 130.75 149.75 130.694 151.11H131.622C131.658 150.303 132.239 150.072 133.019 150.072C133.6 150.072 134.254 150.196 134.254 150.985C134.254 151.663 133.392 151.601 132.375 151.793C131.421 151.971 130.476 152.234 130.476 153.483C130.476 154.576 131.312 155.021 132.329 155.021C133.111 155.021 133.792 154.749 134.3 154.169C134.3 154.767 134.601 155.021 135.08 155.021C135.371 155.021 135.581 154.963 135.734 154.87V154.169ZM134.245 152.979C134.245 153.482 133.746 154.227 132.54 154.227C131.975 154.227 131.457 154.013 131.457 153.42C131.457 152.751 131.975 152.533 132.576 152.43C133.201 152.319 133.891 152.314 134.245 152.06V152.979H134.245Z" fill="#5E686D"/>
<path d="M140.275 152.193C140.275 151.118 140.694 150.07 141.946 150.07C143.217 150.07 143.719 151.069 143.719 152.143C143.719 153.183 143.237 154.226 142.002 154.226C140.812 154.226 140.275 153.218 140.275 152.193ZM144.598 147.305H143.682V150.132H143.663C143.246 149.481 142.428 149.267 141.847 149.267C140.139 149.267 139.294 150.574 139.294 152.13C139.294 153.682 140.149 155.02 141.873 155.02C142.636 155.02 143.355 154.748 143.663 154.15H143.682V154.89H144.598V147.305Z" fill="#5E686D"/>
<path d="M146.698 151.618C146.751 150.775 147.323 150.071 148.296 150.071C149.205 150.071 149.859 150.762 149.902 151.618H146.698ZM149.885 153.152C149.721 153.865 149.185 154.222 148.432 154.222C147.207 154.222 146.652 153.375 146.698 152.42H150.883C150.929 151.083 150.331 149.268 148.35 149.268C146.824 149.268 145.717 150.476 145.717 152.126C145.771 153.812 146.616 155.021 148.406 155.021C149.658 155.021 150.539 154.361 150.793 153.152H149.885Z" fill="#5E686D"/>
<path d="M155.816 147.305H154.888V154.891H155.816V147.305Z" fill="#5E686D"/>
<path d="M157.441 148.483H158.086C158.086 148.973 157.94 149.512 157.458 149.512V150.043C158.287 150.043 158.65 149.325 158.65 148.483V147.305H157.441V148.483Z" fill="#5E686D"/>
<path d="M163.043 148.215H163.062L164.351 151.76H161.735L163.043 148.215ZM159.476 154.891H160.536L161.401 152.603H164.678L165.523 154.891H166.659L163.634 147.305H162.498L159.476 154.891Z" fill="#5E686D"/>
<path d="M167.312 154.891H168.237V149.396H167.312V154.891ZM167.312 148.406H168.237V147.305H167.312V148.406Z" fill="#5E686D"/>
<path d="M174.495 149.397H173.623V150.182H173.614C173.28 149.576 172.652 149.268 171.952 149.268C170.01 149.268 169.356 150.873 169.356 152.171C169.356 153.669 170.192 154.958 171.863 154.958C172.57 154.958 173.297 154.628 173.607 153.959H173.623V154.321C173.623 155.556 173.151 156.403 171.952 156.403C171.345 156.403 170.536 156.171 170.499 155.511H169.574C169.627 156.711 170.846 157.126 171.89 157.126C173.66 157.126 174.495 156.207 174.495 154.423V149.397ZM171.906 154.16C170.7 154.16 170.337 153.059 170.337 152.069C170.337 151.012 170.809 150.071 171.989 150.071C173.151 150.071 173.577 151.07 173.577 152.033C173.577 153.068 173.125 154.16 171.906 154.16Z" fill="#5E686D"/>
<path d="M180.509 149.398H179.591V152.506C179.591 153.491 179.046 154.227 177.929 154.227C177.229 154.227 176.794 153.79 176.794 153.122V149.398H175.876V153.015C175.876 154.196 176.331 155.021 177.801 155.021C178.61 155.021 179.228 154.7 179.618 154.022H179.644V154.892H180.509V149.398Z" fill="#5E686D"/>
<path d="M186.857 154.169C186.729 154.214 186.649 154.228 186.566 154.228C186.276 154.228 186.276 154.035 186.276 153.607V150.776C186.276 149.492 185.186 149.269 184.186 149.269C182.934 149.269 181.861 149.75 181.808 151.11H182.733C182.769 150.303 183.343 150.072 184.123 150.072C184.704 150.072 185.368 150.196 185.368 150.985C185.368 151.663 184.506 151.601 183.488 151.793C182.534 151.971 181.59 152.234 181.59 153.483C181.59 154.576 182.425 155.021 183.442 155.021C184.222 155.021 184.905 154.749 185.414 154.169C185.414 154.767 185.712 155.021 186.194 155.021C186.474 155.021 186.692 154.963 186.857 154.87V154.169ZM185.358 152.979C185.358 153.482 184.859 154.227 183.65 154.227C183.089 154.227 182.57 154.013 182.57 153.42C182.57 152.751 183.089 152.533 183.687 152.43C184.304 152.319 184.995 152.314 185.358 152.06V152.979H185.358Z" fill="#5E686D"/>
<path d="M82.708 134.724H81.6812V142.318H82.708V134.724Z" fill="#5E686D"/>
<path d="M84.2871 142.315H85.205V139.207C85.205 138.221 85.75 137.481 86.8567 137.481C87.5663 137.481 88.0023 137.918 88.0023 138.591V142.315H88.9202V138.698C88.9202 137.517 88.4648 136.688 86.9948 136.688C86.1858 136.688 85.5683 137.008 85.1687 137.686H85.1494V136.812H84.2873V142.315H84.2871Z" fill="#5E686D"/>
<path d="M89.9443 140.582C90 141.943 91.0633 142.442 92.3154 142.442C93.4512 142.442 94.696 142.018 94.696 140.707C94.696 139.646 93.7879 139.352 92.8699 139.142C92.015 138.941 91.0341 138.834 91.0341 138.188C91.0341 137.635 91.6808 137.492 92.2329 137.492C92.8335 137.492 93.4608 137.711 93.5237 138.411H94.4489C94.3689 137.073 93.3881 136.69 92.1531 136.69C91.1795 136.69 90.0631 137.149 90.0631 138.255C90.0631 139.303 90.981 139.601 91.8891 139.802C92.8143 140.003 93.7224 140.123 93.7224 140.819C93.7224 141.515 92.9426 141.648 92.371 141.648C91.6081 141.648 90.8985 141.385 90.8622 140.582H89.9443V140.582Z" fill="#5E686D"/>
<path d="M96.9917 135.173H96.0762V136.814H95.1221V137.617H96.0762V141.113C96.0762 142.121 96.4565 142.317 97.401 142.317H98.1106V141.514H97.6819C97.1102 141.514 96.9917 141.438 96.9917 141.024V137.617H98.1106V136.814H96.9917V135.173Z" fill="#5E686D"/>
<path d="M99.1812 142.318H100.099V136.815H99.1812V142.318ZM99.1812 135.829H100.099V134.724H99.1812V135.829Z" fill="#5E686D"/>
<path d="M102.804 135.173H101.889V136.814H100.925V137.617H101.889V141.113C101.889 142.121 102.259 142.317 103.214 142.317H103.923V141.514H103.494C102.923 141.514 102.804 141.438 102.804 141.024V137.617H103.923V136.814H102.804V135.173Z" fill="#5E686D"/>
<path d="M109.571 136.813H108.643V139.921C108.643 140.907 108.108 141.647 106.992 141.647C106.292 141.647 105.856 141.205 105.856 140.536V136.813H104.94V140.429C104.94 141.612 105.384 142.441 106.856 142.441C107.662 142.441 108.29 142.12 108.68 141.438H108.699V142.316H109.571V136.813H109.571Z" fill="#5E686D"/>
<path d="M112.232 135.173H111.305V136.814H110.351V137.617H111.305V141.113C111.305 142.121 111.688 142.317 112.639 142.317H113.349V141.514H112.923C112.349 141.514 112.232 141.438 112.232 141.024V137.617H113.349V136.814H112.232V135.173Z" fill="#5E686D"/>
<path d="M123.983 137.01C123.748 135.395 122.411 134.544 120.806 134.544C118.415 134.544 117.144 136.332 117.144 138.535C117.144 140.751 118.307 142.49 120.714 142.49C122.666 142.49 123.865 141.344 124.066 139.449H123.029C122.93 140.706 122.157 141.647 120.806 141.647C118.953 141.647 118.171 140.198 118.171 138.463C118.171 136.876 118.953 135.395 120.796 135.395C121.867 135.395 122.731 135.935 122.956 137.01H123.983Z" fill="#5E686D"/>
<path d="M130.149 141.588C130.023 141.632 129.931 141.646 129.858 141.646C129.568 141.646 129.568 141.445 129.568 141.022V138.195C129.568 136.91 128.478 136.688 127.461 136.688C126.225 136.688 125.155 137.164 125.099 138.529H126.017C126.063 137.722 126.635 137.481 127.417 137.481C127.998 137.481 128.66 137.615 128.66 138.4C128.66 139.078 127.788 139.01 126.77 139.207C125.819 139.385 124.881 139.653 124.881 140.892C124.881 141.99 125.717 142.44 126.734 142.44C127.516 142.44 128.197 142.176 128.705 141.588C128.705 142.185 129.006 142.44 129.478 142.44C129.778 142.44 129.977 142.386 130.149 142.288V141.588H130.149ZM128.643 140.402C128.643 140.892 128.144 141.646 126.935 141.646C126.371 141.646 125.855 141.432 125.855 140.83C125.855 140.166 126.371 139.952 126.981 139.844C127.599 139.737 128.289 139.733 128.643 139.474V140.402Z" fill="#5E686D"/>
<path d="M132.266 135.173H131.348V136.814H130.403V137.617H131.348V141.113C131.348 142.121 131.731 142.317 132.682 142.317H133.392V141.514H132.966C132.394 141.514 132.266 141.438 132.266 141.024V137.617H133.392V136.814H132.266V135.173H132.266Z" fill="#5E686D"/>
<path d="M139.367 141.588C139.241 141.632 139.158 141.646 139.076 141.646C138.795 141.646 138.795 141.445 138.795 141.022V138.195C138.795 136.91 137.696 136.688 136.688 136.688C135.443 136.688 134.373 137.164 134.317 138.529H135.235C135.281 137.722 135.862 137.481 136.635 137.481C137.223 137.481 137.877 137.615 137.877 138.4C137.877 139.078 137.015 139.01 135.998 139.207C135.044 139.385 134.099 139.653 134.099 140.892C134.099 141.99 134.935 142.44 135.952 142.44C136.734 142.44 137.415 142.176 137.913 141.588C137.913 142.185 138.223 142.44 138.705 142.44C138.996 142.44 139.204 142.386 139.367 142.288V141.588ZM137.87 140.402C137.87 140.892 137.361 141.646 136.162 141.646C135.598 141.646 135.08 141.432 135.08 140.83C135.08 140.166 135.598 139.952 136.199 139.844C136.816 139.737 137.514 139.733 137.87 139.474V140.402Z" fill="#5E686D"/>
<path d="M141.194 134.724H140.269V142.318H141.194V134.724Z" fill="#5E686D"/>
<path d="M147.577 141.589C147.451 141.633 147.369 141.647 147.296 141.647C146.996 141.647 146.996 141.446 146.996 141.023V138.196C146.996 136.911 145.906 136.689 144.898 136.689C143.654 136.689 142.583 137.166 142.537 138.53H143.445C143.491 137.723 144.073 137.482 144.845 137.482C145.434 137.482 146.088 137.616 146.088 138.401C146.088 139.079 145.226 139.02 144.208 139.208C143.254 139.386 142.31 139.654 142.31 140.893C142.31 141.991 143.155 142.441 144.172 142.441C144.954 142.441 145.625 142.177 146.134 141.589C146.134 142.186 146.444 142.441 146.916 142.441C147.207 142.441 147.415 142.387 147.577 142.289V141.589H147.577ZM146.08 140.403C146.08 140.893 145.579 141.647 144.373 141.647C143.809 141.647 143.29 141.433 143.29 140.831C143.29 140.167 143.809 139.953 144.417 139.846C145.027 139.739 145.724 139.734 146.08 139.475V140.403ZM144.799 136.06H145.499L144.562 134.544H143.382L144.799 136.06Z" fill="#5E686D"/>
<path d="M172.809 28.64C161.548 8.01187 135.954 -0.0549798 115.639 10.638C95.3222 21.3266 87.984 46.7135 99.2455 67.3508C110.497 87.9882 136.091 96.0459 156.406 85.3572C176.723 74.6732 184.061 49.2776 172.809 28.64ZM155.788 84.1579C137.644 93.714 114.721 86.4277 104.615 67.886C94.4866 49.349 101.009 26.5756 119.163 17.0278C137.317 7.47196 160.23 14.7624 170.346 33.3045C180.464 51.8371 173.942 74.6111 155.788 84.1579Z" fill="#BDE4F7"/>
<path d="M177.131 22.7318C165.87 2.0938 140.276 -5.96394 119.961 4.72481C99.6444 15.4091 92.3062 40.8045 103.568 61.4425C114.82 82.0752 140.421 90.1377 160.728 79.4489C181.045 68.7556 188.391 43.3642 177.131 22.7318ZM160.12 78.2496C141.966 87.8057 119.053 80.515 108.935 61.9777C98.8186 43.4403 105.331 20.6666 123.495 11.1103C141.63 1.5545 164.553 8.84112 174.668 27.3865C184.787 45.9289 178.274 68.6976 160.12 78.2496Z" fill="#00ACE5"/>
<path d="M75.215 55.1142C69.5576 44.742 56.6879 40.6843 46.4798 46.0576C36.2645 51.4311 32.5662 64.2021 38.2261 74.5835C43.9005 84.9557 56.7605 89.0094 66.9783 83.6312C77.196 78.2583 80.882 65.4912 75.215 55.1142ZM66.6683 83.0247C57.5428 87.8319 46.0269 84.1704 40.9313 74.8511C35.8455 65.5221 39.1246 54.0752 48.2525 49.268C57.378 44.4656 68.9035 48.1357 73.9894 57.4557C79.0658 66.7795 75.7963 78.2265 66.6683 83.0247Z" fill="#BDE4F7"/>
<path d="M77.395 52.1393C71.7376 41.7714 58.8582 37.7091 48.6525 43.0865C38.4347 48.4605 34.7462 61.2276 40.4061 71.6043C46.0732 81.9811 58.9405 86.0392 69.1487 80.657C79.3665 75.2832 83.0622 62.5164 77.395 52.1393ZM68.8484 80.0547C59.7229 84.862 48.1877 81.1916 43.1019 71.8761C38.0257 62.5517 41.2952 51.1005 50.423 46.2974C59.5485 41.4948 71.0741 45.1605 76.16 54.4759C81.2458 63.8051 77.9667 75.2523 68.8484 80.0547Z" fill="#00ACE5"/>
<path d="M190.055 99.8641C186.032 92.507 176.904 89.6212 169.656 93.4384C162.409 97.2597 159.784 106.317 163.8 113.683C167.822 121.046 176.958 123.922 184.206 120.11C191.452 116.293 194.068 107.231 190.055 99.8641ZM183.988 119.677C177.502 123.084 169.329 120.489 165.725 113.875C162.109 107.263 164.434 99.1286 170.91 95.7216C177.393 92.3146 185.567 94.91 189.183 101.532C192.787 108.141 190.462 116.27 183.988 119.677Z" fill="#BDE4F7"/>
<path d="M191.597 97.7541C187.575 90.3917 178.447 87.515 171.2 91.3324C163.945 95.1449 161.329 104.206 165.352 111.568C169.365 118.935 178.502 121.812 185.749 117.999C192.997 114.186 195.62 105.121 191.597 97.7541ZM185.531 117.571C179.057 120.978 170.874 118.373 167.267 111.756C163.654 105.143 165.979 97.0177 172.453 93.6116C178.938 90.2043 187.112 92.8038 190.726 99.4216C194.332 106.04 192.007 114.16 185.531 117.571Z" fill="#00ACE5"/>
<path d="M150.213 115.373C148.287 111.859 143.938 110.486 140.477 112.301C137.016 114.125 135.764 118.446 137.68 121.963C139.605 125.477 143.955 126.851 147.415 125.031C150.876 123.212 152.128 118.887 150.213 115.373ZM147.316 124.831C144.219 126.455 140.322 125.215 138.597 122.053C136.871 118.9 137.98 115.021 141.075 113.393C144.163 111.765 148.069 113.005 149.794 116.162C151.52 119.319 150.404 123.203 147.316 124.831Z" fill="#BDE4F7"/>
<path d="M150.949 114.366C149.03 110.847 144.671 109.474 141.213 111.298C137.742 113.118 136.498 117.447 138.416 120.957C140.341 124.471 144.7 125.844 148.151 124.025C151.61 122.201 152.864 117.88 150.949 114.366ZM148.05 123.824C144.962 125.451 141.058 124.208 139.324 121.05C137.607 117.893 138.713 114.013 141.811 112.386C144.899 110.758 148.805 112.003 150.53 115.16C152.256 118.312 151.147 122.196 148.05 123.824Z" fill="#00ACE5"/>
<path d="M50.8854 127.033H57.4341V113.722H59.5314C62.3019 113.722 63.1375 114.641 64.0723 117.022L67.9956 127.033H75.2878L70.0567 114.498C69.4027 113.076 68.3686 111.337 66.5886 111.194V111.105C70.7566 110.552 73.3262 107.431 73.3262 103.671C73.3262 94.7662 64.9611 94.998 57.9499 94.998H50.8854V127.033ZM57.4341 100.046H59.5847C62.8542 100.046 66.4967 100.367 66.4967 104.22C66.4967 108.215 62.8107 108.675 59.5847 108.675H57.4341V100.046ZM41.6849 121.2C40.1422 121.981 37.1076 122.534 34.5381 122.534C27.5728 122.534 23.4582 117.62 23.4582 111.105C23.4582 104.545 27.6625 99.4931 34.3928 99.4931C36.7372 99.4931 38.9799 99.8094 41.4501 101.192L41.9223 95.774C39.5344 94.8598 36.6815 94.4409 34.5381 94.4409C23.4582 94.4409 16.6383 100.59 16.6383 111.564C16.6383 122.395 23.9765 127.586 34.5381 127.586C37.0084 127.586 39.578 127.122 41.9684 126.574L41.6849 121.2ZM0 127.033H6.53906V94.998H0V127.033Z" fill="#5E686D"/>
<path d="M81.3086 127.034H88.0922L90.9451 119.685H104.168L106.973 127.034H114.212L101.417 94.9983H94.033L81.3086 127.034ZM102.352 114.642H92.8149L97.5302 101.42H97.6198L102.352 114.642Z" fill="#00ACE5"/>
<path d="M122.432 108.25H114.195V95.0154H129.416V106.855C129.416 106.855 129.416 113.08 121.642 116.505L118.627 112.763C118.627 112.763 122.277 109.968 122.432 108.25Z" fill="#EE7D00"/>
<path d="M121.068 100.889H121.976C122.078 100.889 122.26 100.858 122.55 100.8C122.696 100.769 122.812 100.693 122.904 100.582C122.994 100.466 123.03 100.332 123.03 100.184C123.03 99.9617 122.957 99.7879 122.821 99.6719C122.676 99.5559 122.405 99.4935 122.013 99.4935H121.068V100.889H121.068ZM118.889 104.974V98.1064H122.495C123.168 98.1064 123.667 98.1647 124.021 98.2759C124.374 98.3876 124.665 98.5969 124.883 98.9002C125.093 99.2037 125.202 99.578 125.202 100.011C125.202 100.394 125.12 100.72 124.955 101.001C124.793 101.277 124.565 101.5 124.275 101.674C124.093 101.781 123.839 101.87 123.512 101.937C123.776 102.022 123.957 102.111 124.076 102.2C124.156 102.25 124.265 102.375 124.42 102.557C124.575 102.744 124.674 102.883 124.73 102.985L125.774 104.974H123.33L122.177 102.874C122.022 102.606 121.896 102.428 121.787 102.343C121.632 102.241 121.451 102.188 121.25 102.188H121.068V104.974H118.889V104.974Z" fill="white"/>
</svg>
