<svg id="Layer_1" data-name="Layer 1" xmlns="http://www.w3.org/2000/svg" xmlns:xlink="http://www.w3.org/1999/xlink" viewBox="0 0 212.67 176.47"><defs><style>.cls-1{fill:#3267b2;}.cls-2{fill:url(#linear-gradient);}</style><linearGradient id="linear-gradient" x1="77.76" y1="92.73" x2="134.91" y2="35.58" gradientUnits="userSpaceOnUse"><stop offset="0" stop-color="#b4f67e"/><stop offset="0.12" stop-color="#8ae196"/><stop offset="0.29" stop-color="#55c5b5"/><stop offset="0.41" stop-color="#34b4c8"/><stop offset="0.48" stop-color="#28aecf"/><stop offset="0.62" stop-color="#2c8fc3"/><stop offset="0.75" stop-color="#2f79b9"/><stop offset="0.88" stop-color="#316cb4"/><stop offset="1" stop-color="#3267b2"/></linearGradient></defs><title>_Logos_reusemp3_xweb</title><path class="cls-1" d="M24.78,149a9,9,0,0,0,4.15-3.26,9.66,9.66,0,0,0,1.48-5.55v-.67A9.88,9.88,0,0,0,29,134a8.74,8.74,0,0,0-4.15-3.3,17,17,0,0,0-6.37-1.09H7.12v30.69h5.93V150.1h5.51l7.18,10.19h6.93l-8.13-11.19ZM13.05,134.65h6a5.67,5.67,0,0,1,2.82.67,4.73,4.73,0,0,1,1.86,1.88,5.7,5.7,0,0,1,.67,2.8,5.61,5.61,0,0,1-.67,2.76,4.72,4.72,0,0,1-1.86,1.88,5.66,5.66,0,0,1-2.82.67h-6Z"/><path class="cls-1" d="M50.86,138.43a11.11,11.11,0,0,0-6.16-1.61,11.67,11.67,0,0,0-4.93,1,10.53,10.53,0,0,0-3.57,2.63A11.26,11.26,0,0,0,34,144.19a13.22,13.22,0,0,0-.73,4.36v.79a12.8,12.8,0,0,0,.73,4.26,11.78,11.78,0,0,0,2.17,3.78,10.35,10.35,0,0,0,3.63,2.69,12.2,12.2,0,0,0,5.12,1,12.32,12.32,0,0,0,5-1,9.42,9.42,0,0,0,3.61-2.71,9.59,9.59,0,0,0,1.92-4.09H50.13a3.82,3.82,0,0,1-1.71,2.11,6.33,6.33,0,0,1-3.47.86,6.1,6.1,0,0,1-3.51-.94,5.58,5.58,0,0,1-2-2.59,9.15,9.15,0,0,1-.58-2.4h17v-2.09a12.81,12.81,0,0,0-1.25-5.62A10.21,10.21,0,0,0,50.86,138.43Zm-9.42,4.07a5.81,5.81,0,0,1,3.26-.88,5.72,5.72,0,0,1,3.19.83,5,5,0,0,1,1.9,2.38,8.38,8.38,0,0,1,.5,2H38.91a8.46,8.46,0,0,1,.51-1.77A5.42,5.42,0,0,1,41.44,142.5Z"/><path class="cls-1" d="M74.22,151a4.78,4.78,0,0,1-1.27,3.51,4.39,4.39,0,0,1-3.28,1.3,4.17,4.17,0,0,1-3.17-1.23,4.62,4.62,0,0,1-1.17-3.32V137.57h-5.8v13.15q0,5.1,2.15,7.68A7.45,7.45,0,0,0,67.75,161H68a7.74,7.74,0,0,0,4.39-1.17A7,7,0,0,0,75,156.36a11.42,11.42,0,0,0,.42-1.39v5.31H80V137.57h-5.8Z"/><path class="cls-1" d="M101.89,148.76a12,12,0,0,0-6.28-2.21l-2-.21a5.8,5.8,0,0,1-2.65-.79,1.93,1.93,0,0,1-.81-1.67,2.16,2.16,0,0,1,1-1.84,4.87,4.87,0,0,1,2.84-.71,5.06,5.06,0,0,1,3.13.83,2.73,2.73,0,0,1,1.17,2h5.22a6.49,6.49,0,0,0-2.71-5.39A11.44,11.44,0,0,0,94,136.95a12.86,12.86,0,0,0-4.74.81,7.17,7.17,0,0,0-3.24,2.4,6.43,6.43,0,0,0-1.17,3.92,5.85,5.85,0,0,0,2,4.68,10.57,10.57,0,0,0,5.84,2.17l2,.21A6.84,6.84,0,0,1,98,152a2.09,2.09,0,0,1,.94,1.79,2.3,2.3,0,0,1-1.23,2,6.34,6.34,0,0,1-3.32.75,5.74,5.74,0,0,1-3.67-1,3.22,3.22,0,0,1-1.3-2.13H84.16A6.8,6.8,0,0,0,86.94,159a12,12,0,0,0,7.33,2,13.56,13.56,0,0,0,5.22-.92,8,8,0,0,0,3.44-2.57,6.34,6.34,0,0,0,1.23-3.9A5.85,5.85,0,0,0,101.89,148.76Z"/><path class="cls-1" d="M124.35,138.43a11.11,11.11,0,0,0-6.16-1.61,11.67,11.67,0,0,0-4.93,1,10.53,10.53,0,0,0-3.57,2.63,11.26,11.26,0,0,0-2.17,3.76,13.22,13.22,0,0,0-.73,4.36v.79a12.8,12.8,0,0,0,.73,4.26,11.78,11.78,0,0,0,2.17,3.78,10.35,10.35,0,0,0,3.63,2.69,13.49,13.49,0,0,0,10.11,0,9.42,9.42,0,0,0,3.61-2.71,9.59,9.59,0,0,0,1.92-4.09h-5.35a3.82,3.82,0,0,1-1.71,2.11,6.33,6.33,0,0,1-3.47.86,6.1,6.1,0,0,1-3.51-.94,5.58,5.58,0,0,1-2-2.59,9.15,9.15,0,0,1-.58-2.4h17v-2.09a12.81,12.81,0,0,0-1.25-5.62A10.21,10.21,0,0,0,124.35,138.43Zm-9.42,4.07a5.81,5.81,0,0,1,3.26-.88,5.72,5.72,0,0,1,3.19.83,5,5,0,0,1,1.9,2.38,8.38,8.38,0,0,1,.5,2H112.4a8.46,8.46,0,0,1,.51-1.77A5.42,5.42,0,0,1,114.93,142.5Z"/><path class="cls-1" d="M165.69,138.74a7.44,7.44,0,0,0-4.36-1.21h-.13a6.91,6.91,0,0,0-7,4.68,11.13,11.13,0,0,0-.34,1.06,11.23,11.23,0,0,0-.35-1.1,7.16,7.16,0,0,0-2.55-3.42,7.35,7.35,0,0,0-4.34-1.21h-.13a7.25,7.25,0,0,0-4.34,1.23,7.4,7.4,0,0,0-2.57,3.44,11.1,11.1,0,0,0-.36,1.1v-5.15h-2.5v22.13h3.13V147a6.85,6.85,0,0,1,1.61-4.78,5.59,5.59,0,0,1,4.36-1.77,5,5,0,0,1,4.09,1.71,7,7,0,0,1,1.42,4.64v13.53h3.13V147a6.85,6.85,0,0,1,1.61-4.78,5.59,5.59,0,0,1,4.36-1.77,5,5,0,0,1,4.09,1.71,7,7,0,0,1,1.42,4.64v13.53h3.13V147.47a14.71,14.71,0,0,0-.86-5.3A7.23,7.23,0,0,0,165.69,138.74Z"/><path class="cls-1" d="M192.29,140.93a10.12,10.12,0,0,0-7.79-3.49,10.11,10.11,0,0,0-4.91,1.19,8.63,8.63,0,0,0-3.47,3.49,10.28,10.28,0,0,0-.69,1.59V138.2h-2.5v30.44h3.13V156.31a9.1,9.1,0,0,0,3.53,3.5,10,10,0,0,0,4.82,1.19,10.11,10.11,0,0,0,7.83-3.49,11.55,11.55,0,0,0,2.15-3.67,12.53,12.53,0,0,0,.75-4.32v-.58a12.89,12.89,0,0,0-.73-4.32A11.26,11.26,0,0,0,192.29,140.93Zm-1.23,12.86a7.73,7.73,0,0,1-2.75,3.26,7.61,7.61,0,0,1-4.3,1.19,8.41,8.41,0,0,1-4.09-1,7.52,7.52,0,0,1-2.9-2.78,7.84,7.84,0,0,1-1.06-4.11v-2A8.32,8.32,0,0,1,177,144a7.44,7.44,0,0,1,2.9-2.82,8.4,8.4,0,0,1,4.09-1,7.53,7.53,0,0,1,4.26,1.19,7.91,7.91,0,0,1,2.78,3.22,10.47,10.47,0,0,1,1,4.61A10.72,10.72,0,0,1,191.05,153.79Z"/><path class="cls-1" d="M204.09,130.1a5.93,5.93,0,0,0-3.93-1.22H200l5.05-3.54v-2.18h-9.82v2h6.95l.18.25-5.46,3.85,1.13,1.85a3.3,3.3,0,0,1,.89-.45,3.78,3.78,0,0,1,1.18-.16,3.34,3.34,0,0,1,2.35.78,2.85,2.85,0,0,1,0,4.09,3.36,3.36,0,0,1-2.36.8,3.52,3.52,0,0,1-2.4-.76,2.57,2.57,0,0,1-.87-2H194.6a4.34,4.34,0,0,0,1.49,3.4,5.79,5.79,0,0,0,4,1.33,5.71,5.71,0,0,0,4-1.33,4.24,4.24,0,0,0,1.45-3.25v-.22A4,4,0,0,0,204.09,130.1Z"/><path class="cls-2" d="M126.23,39.52c-1.63-2.64-3.16-5.13-4.58-7.61v0L108.06,8.81a2.09,2.09,0,0,0-1.73-1,2,2,0,0,0-1.72,1L91.27,31.91c-1.49,2.6-3.12,5.22-4.84,8C80,50.16,72.8,61.79,72.8,73.92a33.53,33.53,0,1,0,67.06,0C139.86,61.65,132.62,49.89,126.23,39.52ZM76.8,73.92c0-11,6.62-21.61,13-31.9,1.75-2.81,3.4-5.46,4.92-8.12l10.46-18.1v87.61A29.56,29.56,0,0,1,76.8,73.92Zm30.67,29.5v-11l21.2-21.2-1.62-1.62L107.48,89.15V73.41L121.84,59l-1.62-1.62L107.48,70.18V54.73l7.22-7.55L113,45.6l-5.56,5.82V15.71L118.19,33.9c1.45,2.53,3,5,4.64,7.71,6.41,10.41,13,21.17,13,32.3A29.56,29.56,0,0,1,107.48,103.42Z"/><path class="cls-1" d="M24.78,149a9,9,0,0,0,4.15-3.26,9.66,9.66,0,0,0,1.48-5.55v-.67A9.88,9.88,0,0,0,29,134a8.74,8.74,0,0,0-4.15-3.3,17,17,0,0,0-6.37-1.09H7.12v30.69h5.93V150.1h5.51l7.18,10.19h6.93l-8.13-11.19ZM13.05,134.65h6a5.67,5.67,0,0,1,2.82.67,4.73,4.73,0,0,1,1.86,1.88,5.7,5.7,0,0,1,.67,2.8,5.61,5.61,0,0,1-.67,2.76,4.72,4.72,0,0,1-1.86,1.88,5.66,5.66,0,0,1-2.82.67h-6Z"/><path class="cls-1" d="M50.86,138.43a11.11,11.11,0,0,0-6.16-1.61,11.67,11.67,0,0,0-4.93,1,10.53,10.53,0,0,0-3.57,2.63A11.26,11.26,0,0,0,34,144.19a13.22,13.22,0,0,0-.73,4.36v.79a12.8,12.8,0,0,0,.73,4.26,11.78,11.78,0,0,0,2.17,3.78,10.35,10.35,0,0,0,3.63,2.69,12.2,12.2,0,0,0,5.12,1,12.32,12.32,0,0,0,5-1,9.42,9.42,0,0,0,3.61-2.71,9.59,9.59,0,0,0,1.92-4.09H50.13a3.82,3.82,0,0,1-1.71,2.11,6.33,6.33,0,0,1-3.47.86,6.1,6.1,0,0,1-3.51-.94,5.58,5.58,0,0,1-2-2.59,9.15,9.15,0,0,1-.58-2.4h17v-2.09a12.81,12.81,0,0,0-1.25-5.62A10.21,10.21,0,0,0,50.86,138.43Zm-9.42,4.07a5.81,5.81,0,0,1,3.26-.88,5.72,5.72,0,0,1,3.19.83,5,5,0,0,1,1.9,2.38,8.38,8.38,0,0,1,.5,2H38.91a8.46,8.46,0,0,1,.51-1.77A5.42,5.42,0,0,1,41.44,142.5Z"/><path class="cls-1" d="M74.22,151a4.78,4.78,0,0,1-1.27,3.51,4.39,4.39,0,0,1-3.28,1.3,4.17,4.17,0,0,1-3.17-1.23,4.62,4.62,0,0,1-1.17-3.32V137.57h-5.8v13.15q0,5.1,2.15,7.68A7.45,7.45,0,0,0,67.75,161H68a7.74,7.74,0,0,0,4.39-1.17A7,7,0,0,0,75,156.36a11.42,11.42,0,0,0,.42-1.39v5.31H80V137.57h-5.8Z"/><path class="cls-1" d="M101.89,148.76a12,12,0,0,0-6.28-2.21l-2-.21a5.8,5.8,0,0,1-2.65-.79,1.93,1.93,0,0,1-.81-1.67,2.16,2.16,0,0,1,1-1.84,4.87,4.87,0,0,1,2.84-.71,5.06,5.06,0,0,1,3.13.83,2.73,2.73,0,0,1,1.17,2h5.22a6.49,6.49,0,0,0-2.71-5.39A11.44,11.44,0,0,0,94,136.95a12.86,12.86,0,0,0-4.74.81,7.17,7.17,0,0,0-3.24,2.4,6.43,6.43,0,0,0-1.17,3.92,5.85,5.85,0,0,0,2,4.68,10.57,10.57,0,0,0,5.84,2.17l2,.21A6.84,6.84,0,0,1,98,152a2.09,2.09,0,0,1,.94,1.79,2.3,2.3,0,0,1-1.23,2,6.34,6.34,0,0,1-3.32.75,5.74,5.74,0,0,1-3.67-1,3.22,3.22,0,0,1-1.3-2.13H84.16A6.8,6.8,0,0,0,86.94,159a12,12,0,0,0,7.33,2,13.56,13.56,0,0,0,5.22-.92,8,8,0,0,0,3.44-2.57,6.34,6.34,0,0,0,1.23-3.9A5.85,5.85,0,0,0,101.89,148.76Z"/><path class="cls-1" d="M124.35,138.43a11.11,11.11,0,0,0-6.16-1.61,11.67,11.67,0,0,0-4.93,1,10.53,10.53,0,0,0-3.57,2.63,11.26,11.26,0,0,0-2.17,3.76,13.22,13.22,0,0,0-.73,4.36v.79a12.8,12.8,0,0,0,.73,4.26,11.78,11.78,0,0,0,2.17,3.78,10.35,10.35,0,0,0,3.63,2.69,13.49,13.49,0,0,0,10.11,0,9.42,9.42,0,0,0,3.61-2.71,9.59,9.59,0,0,0,1.92-4.09h-5.35a3.82,3.82,0,0,1-1.71,2.11,6.33,6.33,0,0,1-3.47.86,6.1,6.1,0,0,1-3.51-.94,5.58,5.58,0,0,1-2-2.59,9.15,9.15,0,0,1-.58-2.4h17v-2.09a12.81,12.81,0,0,0-1.25-5.62A10.21,10.21,0,0,0,124.35,138.43Zm-9.42,4.07a5.81,5.81,0,0,1,3.26-.88,5.72,5.72,0,0,1,3.19.83,5,5,0,0,1,1.9,2.38,8.38,8.38,0,0,1,.5,2H112.4a8.46,8.46,0,0,1,.51-1.77A5.42,5.42,0,0,1,114.93,142.5Z"/><path class="cls-1" d="M165.69,138.74a7.44,7.44,0,0,0-4.36-1.21h-.13a6.91,6.91,0,0,0-7,4.68,11.13,11.13,0,0,0-.34,1.06,11.23,11.23,0,0,0-.35-1.1,7.16,7.16,0,0,0-2.55-3.42,7.35,7.35,0,0,0-4.34-1.21h-.13a7.25,7.25,0,0,0-4.34,1.23,7.4,7.4,0,0,0-2.57,3.44,11.1,11.1,0,0,0-.36,1.1v-5.15h-2.5v22.13h3.13V147a6.85,6.85,0,0,1,1.61-4.78,5.59,5.59,0,0,1,4.36-1.77,5,5,0,0,1,4.09,1.71,7,7,0,0,1,1.42,4.64v13.53h3.13V147a6.85,6.85,0,0,1,1.61-4.78,5.59,5.59,0,0,1,4.36-1.77,5,5,0,0,1,4.09,1.71,7,7,0,0,1,1.42,4.64v13.53h3.13V147.47a14.71,14.71,0,0,0-.86-5.3A7.23,7.23,0,0,0,165.69,138.74Z"/><path class="cls-1" d="M192.29,140.93a10.12,10.12,0,0,0-7.79-3.49,10.11,10.11,0,0,0-4.91,1.19,8.63,8.63,0,0,0-3.47,3.49,10.28,10.28,0,0,0-.69,1.59V138.2h-2.5v30.44h3.13V156.31a9.1,9.1,0,0,0,3.53,3.5,10,10,0,0,0,4.82,1.19,10.11,10.11,0,0,0,7.83-3.49,11.55,11.55,0,0,0,2.15-3.67,12.53,12.53,0,0,0,.75-4.32v-.58a12.89,12.89,0,0,0-.73-4.32A11.26,11.26,0,0,0,192.29,140.93Zm-1.23,12.86a7.73,7.73,0,0,1-2.75,3.26,7.61,7.61,0,0,1-4.3,1.19,8.41,8.41,0,0,1-4.09-1,7.52,7.52,0,0,1-2.9-2.78,7.84,7.84,0,0,1-1.06-4.11v-2A8.32,8.32,0,0,1,177,144a7.44,7.44,0,0,1,2.9-2.82,8.4,8.4,0,0,1,4.09-1,7.53,7.53,0,0,1,4.26,1.19,7.91,7.91,0,0,1,2.78,3.22,10.47,10.47,0,0,1,1,4.61A10.72,10.72,0,0,1,191.05,153.79Z"/><path class="cls-1" d="M204.09,130.1a5.93,5.93,0,0,0-3.93-1.22H200l5.05-3.54v-2.18h-9.82v2h6.95l.18.25-5.46,3.85,1.13,1.85a3.3,3.3,0,0,1,.89-.45,3.78,3.78,0,0,1,1.18-.16,3.34,3.34,0,0,1,2.35.78,2.85,2.85,0,0,1,0,4.09,3.36,3.36,0,0,1-2.36.8,3.52,3.52,0,0,1-2.4-.76,2.57,2.57,0,0,1-.87-2H194.6a4.34,4.34,0,0,0,1.49,3.4,5.79,5.79,0,0,0,4,1.33,5.71,5.71,0,0,0,4-1.33,4.24,4.24,0,0,0,1.45-3.25v-.22A4,4,0,0,0,204.09,130.1Z"/></svg>