<svg id="Layer_1" data-name="Layer 1" xmlns="http://www.w3.org/2000/svg" xmlns:xlink="http://www.w3.org/1999/xlink" viewBox="0 0 86.95 116.52"><defs><style>.cls-1{fill:url(#linear-gradient);}</style><linearGradient id="linear-gradient" x1="14.9" y1="93.36" x2="72.05" y2="36.2" gradientUnits="userSpaceOnUse"><stop offset="0" stop-color="#b4f67e"/><stop offset="0.12" stop-color="#8ae196"/><stop offset="0.29" stop-color="#55c5b5"/><stop offset="0.41" stop-color="#34b4c8"/><stop offset="0.48" stop-color="#28aecf"/><stop offset="0.62" stop-color="#2c8fc3"/><stop offset="0.75" stop-color="#2f79b9"/><stop offset="0.88" stop-color="#316cb4"/><stop offset="1" stop-color="#3267b2"/></linearGradient></defs><title>_Logos_reusemp3_xweb</title><path class="cls-1" d="M63.37,40.14C61.75,37.5,60.21,35,58.8,32.53v0L45.2,9.44a2.09,2.09,0,0,0-1.73-1,2,2,0,0,0-1.72,1L28.41,32.53c-1.49,2.6-3.12,5.22-4.84,8-6.38,10.26-13.62,21.89-13.62,34a33.53,33.53,0,1,0,67.06,0C77,62.27,69.76,50.51,63.37,40.14ZM13.95,74.54c0-11,6.62-21.61,13-31.9,1.75-2.81,3.4-5.46,4.92-8.12l10.46-18.1V104A29.56,29.56,0,0,1,13.95,74.54ZM44.62,104V93l21.2-21.2L64.2,70.19,44.62,89.77V74L59,59.67l-1.62-1.62L44.62,70.8V55.35l7.22-7.55-1.65-1.58L44.62,52V16.33L55.33,34.53c1.45,2.53,3,5,4.64,7.71,6.41,10.41,13,21.17,13,32.3A29.56,29.56,0,0,1,44.62,104Z"/></svg>